<mxfile host="app.diagrams.net" modified="2021-03-03T02:01:27.400Z" agent="5.0 (X11)" etag="o98vKnCK7i50N-FpTD6Y" version="14.4.3" type="github">
  <diagram id="VbjsBvXk_r9H6xnW6gbQ" name="Page-1">
    <mxGraphModel dx="1952" dy="646" grid="1" gridSize="10" guides="1" tooltips="1" connect="1" arrows="1" fold="1" page="1" pageScale="1" pageWidth="827" pageHeight="1169" math="0" shadow="0">
      <root>
        <mxCell id="0" />
        <mxCell id="1" parent="0" />
        <mxCell id="YT4_639piBS6mPweg1sy-2" value="users" style="swimlane;fontStyle=2;align=center;verticalAlign=top;childLayout=stackLayout;horizontal=1;startSize=26;horizontalStack=0;resizeParent=1;resizeLast=0;collapsible=1;marginBottom=0;rounded=0;shadow=0;strokeWidth=1;" vertex="1" parent="1">
          <mxGeometry x="-10" y="60" width="160" height="138" as="geometry">
            <mxRectangle x="230" y="140" width="160" height="26" as="alternateBounds" />
          </mxGeometry>
        </mxCell>
        <mxCell id="YT4_639piBS6mPweg1sy-3" value="&lt;div align=&quot;left&quot;&gt;id user&lt;br&gt;&lt;/div&gt;" style="text;html=1;align=left;verticalAlign=middle;resizable=0;points=[];autosize=1;" vertex="1" parent="YT4_639piBS6mPweg1sy-2">
          <mxGeometry y="26" width="160" height="20" as="geometry" />
        </mxCell>
        <mxCell id="YT4_639piBS6mPweg1sy-4" value="name" style="text;align=left;verticalAlign=top;spacingLeft=4;spacingRight=4;overflow=hidden;rotatable=0;points=[[0,0.5],[1,0.5]];portConstraint=eastwest;" vertex="1" parent="YT4_639piBS6mPweg1sy-2">
          <mxGeometry y="46" width="160" height="26" as="geometry" />
        </mxCell>
        <mxCell id="YT4_639piBS6mPweg1sy-5" value="email" style="text;align=left;verticalAlign=top;spacingLeft=4;spacingRight=4;overflow=hidden;rotatable=0;points=[[0,0.5],[1,0.5]];portConstraint=eastwest;rounded=0;shadow=0;html=0;" vertex="1" parent="YT4_639piBS6mPweg1sy-2">
          <mxGeometry y="72" width="160" height="26" as="geometry" />
        </mxCell>
        <mxCell id="YT4_639piBS6mPweg1sy-6" value="password" style="text;align=left;verticalAlign=top;spacingLeft=4;spacingRight=4;overflow=hidden;rotatable=0;points=[[0,0.5],[1,0.5]];portConstraint=eastwest;rounded=0;shadow=0;html=0;" vertex="1" parent="YT4_639piBS6mPweg1sy-2">
          <mxGeometry y="98" width="160" height="26" as="geometry" />
        </mxCell>
        <mxCell id="YT4_639piBS6mPweg1sy-8" value="properties" style="swimlane;fontStyle=0;align=center;verticalAlign=top;childLayout=stackLayout;horizontal=1;startSize=26;horizontalStack=0;resizeParent=1;resizeLast=0;collapsible=1;marginBottom=0;rounded=0;shadow=0;strokeWidth=1;" vertex="1" parent="1">
          <mxGeometry x="-700" y="80" width="230" height="400" as="geometry">
            <mxRectangle x="120" y="360" width="160" height="26" as="alternateBounds" />
          </mxGeometry>
        </mxCell>
        <mxCell id="YT4_639piBS6mPweg1sy-9" value="&lt;div align=&quot;left&quot;&gt;id owner&lt;/div&gt;" style="text;html=1;align=left;verticalAlign=middle;resizable=0;points=[];autosize=1;" vertex="1" parent="YT4_639piBS6mPweg1sy-8">
          <mxGeometry y="26" width="230" height="20" as="geometry" />
        </mxCell>
        <mxCell id="YT4_639piBS6mPweg1sy-10" value="title" style="text;align=left;verticalAlign=top;spacingLeft=4;spacingRight=4;overflow=hidden;rotatable=0;points=[[0,0.5],[1,0.5]];portConstraint=eastwest;" vertex="1" parent="YT4_639piBS6mPweg1sy-8">
          <mxGeometry y="46" width="230" height="26" as="geometry" />
        </mxCell>
        <mxCell id="YT4_639piBS6mPweg1sy-11" value="description" style="text;align=left;verticalAlign=top;spacingLeft=4;spacingRight=4;overflow=hidden;rotatable=0;points=[[0,0.5],[1,0.5]];portConstraint=eastwest;rounded=0;shadow=0;html=0;" vertex="1" parent="YT4_639piBS6mPweg1sy-8">
          <mxGeometry y="72" width="230" height="26" as="geometry" />
        </mxCell>
        <mxCell id="YT4_639piBS6mPweg1sy-37" value="thumbnail_photo&#xa;cover_photo&#xa;" style="text;align=left;verticalAlign=top;spacingLeft=4;spacingRight=4;overflow=hidden;rotatable=0;points=[[0,0.5],[1,0.5]];portConstraint=eastwest;" vertex="1" parent="YT4_639piBS6mPweg1sy-8">
          <mxGeometry y="98" width="230" height="42" as="geometry" />
        </mxCell>
        <mxCell id="YT4_639piBS6mPweg1sy-12" value="cost_per_night" style="text;align=left;verticalAlign=top;spacingLeft=4;spacingRight=4;overflow=hidden;rotatable=0;points=[[0,0.5],[1,0.5]];portConstraint=eastwest;fontStyle=0" vertex="1" parent="YT4_639piBS6mPweg1sy-8">
          <mxGeometry y="140" width="230" height="26" as="geometry" />
        </mxCell>
        <mxCell id="YT4_639piBS6mPweg1sy-13" value="parking_spaces" style="text;align=left;verticalAlign=top;spacingLeft=4;spacingRight=4;overflow=hidden;rotatable=0;points=[[0,0.5],[1,0.5]];portConstraint=eastwest;" vertex="1" parent="YT4_639piBS6mPweg1sy-8">
          <mxGeometry y="166" width="230" height="26" as="geometry" />
        </mxCell>
        <mxCell id="YT4_639piBS6mPweg1sy-14" value="&lt;div align=&quot;left&quot;&gt;number_of_bathrooms&lt;/div&gt;" style="text;html=1;align=left;verticalAlign=middle;resizable=0;points=[];autosize=1;" vertex="1" parent="YT4_639piBS6mPweg1sy-8">
          <mxGeometry y="192" width="230" height="20" as="geometry" />
        </mxCell>
        <mxCell id="YT4_639piBS6mPweg1sy-15" value="&lt;div align=&quot;left&quot;&gt;number_of_bedrooms &lt;br&gt;&lt;/div&gt;" style="text;html=1;align=left;verticalAlign=middle;resizable=0;points=[];autosize=1;rotation=0;" vertex="1" parent="YT4_639piBS6mPweg1sy-8">
          <mxGeometry y="212" width="230" height="20" as="geometry" />
        </mxCell>
        <mxCell id="YT4_639piBS6mPweg1sy-26" value="country" style="text;align=left;verticalAlign=top;spacingLeft=4;spacingRight=4;overflow=hidden;rotatable=0;points=[[0,0.5],[1,0.5]];portConstraint=eastwest;" vertex="1" parent="YT4_639piBS6mPweg1sy-8">
          <mxGeometry y="232" width="230" height="26" as="geometry" />
        </mxCell>
        <mxCell id="YT4_639piBS6mPweg1sy-27" value="street" style="text;align=left;verticalAlign=top;spacingLeft=4;spacingRight=4;overflow=hidden;rotatable=0;points=[[0,0.5],[1,0.5]];portConstraint=eastwest;rounded=0;shadow=0;html=0;" vertex="1" parent="YT4_639piBS6mPweg1sy-8">
          <mxGeometry y="258" width="230" height="26" as="geometry" />
        </mxCell>
        <mxCell id="YT4_639piBS6mPweg1sy-28" value="city" style="text;align=left;verticalAlign=top;spacingLeft=4;spacingRight=4;overflow=hidden;rotatable=0;points=[[0,0.5],[1,0.5]];portConstraint=eastwest;fontStyle=0" vertex="1" parent="YT4_639piBS6mPweg1sy-8">
          <mxGeometry y="284" width="230" height="26" as="geometry" />
        </mxCell>
        <mxCell id="YT4_639piBS6mPweg1sy-29" value="province" style="text;align=left;verticalAlign=top;spacingLeft=4;spacingRight=4;overflow=hidden;rotatable=0;points=[[0,0.5],[1,0.5]];portConstraint=eastwest;" vertex="1" parent="YT4_639piBS6mPweg1sy-8">
          <mxGeometry y="310" width="230" height="26" as="geometry" />
        </mxCell>
        <mxCell id="YT4_639piBS6mPweg1sy-30" value="post_code" style="text;html=1;align=left;verticalAlign=middle;resizable=0;points=[];autosize=1;rotation=0;" vertex="1" parent="YT4_639piBS6mPweg1sy-8">
          <mxGeometry y="336" width="230" height="20" as="geometry" />
        </mxCell>
        <mxCell id="YT4_639piBS6mPweg1sy-31" value="activity" style="text;align=left;verticalAlign=top;spacingLeft=4;spacingRight=4;overflow=hidden;rotatable=0;points=[[0,0.5],[1,0.5]];portConstraint=eastwest;" vertex="1" parent="YT4_639piBS6mPweg1sy-8">
          <mxGeometry y="356" width="230" height="44" as="geometry" />
        </mxCell>
        <mxCell id="YT4_639piBS6mPweg1sy-17" value="reservations" style="swimlane;fontStyle=0;align=center;verticalAlign=top;childLayout=stackLayout;horizontal=1;startSize=26;horizontalStack=0;resizeParent=1;resizeLast=0;collapsible=1;marginBottom=0;rounded=0;shadow=0;strokeWidth=1;" vertex="1" parent="1">
          <mxGeometry x="-310" y="84" width="160" height="146" as="geometry">
            <mxRectangle x="340" y="380" width="170" height="26" as="alternateBounds" />
          </mxGeometry>
        </mxCell>
        <mxCell id="YT4_639piBS6mPweg1sy-40" value="&lt;div align=&quot;left&quot;&gt;id&lt;/div&gt;" style="text;html=1;align=left;verticalAlign=middle;resizable=0;points=[];autosize=1;" vertex="1" parent="YT4_639piBS6mPweg1sy-17">
          <mxGeometry y="26" width="160" height="20" as="geometry" />
        </mxCell>
        <mxCell id="YT4_639piBS6mPweg1sy-18" value="start_date&#xa;end_date&#xa;" style="text;align=left;verticalAlign=top;spacingLeft=4;spacingRight=4;overflow=hidden;rotatable=0;points=[[0,0.5],[1,0.5]];portConstraint=eastwest;" vertex="1" parent="YT4_639piBS6mPweg1sy-17">
          <mxGeometry y="46" width="160" height="54" as="geometry" />
        </mxCell>
        <mxCell id="YT4_639piBS6mPweg1sy-45" value="&lt;div align=&quot;left&quot;&gt;property_id&lt;/div&gt;" style="text;html=1;align=left;verticalAlign=middle;resizable=0;points=[];autosize=1;" vertex="1" parent="YT4_639piBS6mPweg1sy-17">
          <mxGeometry y="100" width="160" height="20" as="geometry" />
        </mxCell>
        <mxCell id="YT4_639piBS6mPweg1sy-44" value="&lt;div align=&quot;left&quot;&gt;guest id&lt;br&gt;&lt;/div&gt;" style="text;html=1;align=left;verticalAlign=middle;resizable=0;points=[];autosize=1;" vertex="1" parent="YT4_639piBS6mPweg1sy-17">
          <mxGeometry y="120" width="160" height="20" as="geometry" />
        </mxCell>
        <mxCell id="YT4_639piBS6mPweg1sy-19" value="property_reviews" style="swimlane;fontStyle=0;align=center;verticalAlign=top;childLayout=stackLayout;horizontal=1;startSize=26;horizontalStack=0;resizeParent=1;resizeLast=0;collapsible=1;marginBottom=0;rounded=0;shadow=0;strokeWidth=1;" vertex="1" parent="1">
          <mxGeometry x="-310" y="310" width="160" height="170" as="geometry">
            <mxRectangle x="550" y="140" width="160" height="26" as="alternateBounds" />
          </mxGeometry>
        </mxCell>
        <mxCell id="YT4_639piBS6mPweg1sy-42" value="&lt;div align=&quot;left&quot;&gt;id&lt;/div&gt;" style="text;html=1;align=left;verticalAlign=middle;resizable=0;points=[];autosize=1;" vertex="1" parent="YT4_639piBS6mPweg1sy-19">
          <mxGeometry y="26" width="160" height="20" as="geometry" />
        </mxCell>
        <mxCell id="YT4_639piBS6mPweg1sy-43" value="&lt;div align=&quot;left&quot;&gt;guest id&lt;br&gt;&lt;/div&gt;" style="text;html=1;align=left;verticalAlign=middle;resizable=0;points=[];autosize=1;" vertex="1" parent="YT4_639piBS6mPweg1sy-19">
          <mxGeometry y="46" width="160" height="20" as="geometry" />
        </mxCell>
        <mxCell id="YT4_639piBS6mPweg1sy-46" value="&lt;div align=&quot;left&quot;&gt;property_id&lt;/div&gt;" style="text;html=1;align=left;verticalAlign=middle;resizable=0;points=[];autosize=1;" vertex="1" parent="YT4_639piBS6mPweg1sy-19">
          <mxGeometry y="66" width="160" height="20" as="geometry" />
        </mxCell>
        <mxCell id="YT4_639piBS6mPweg1sy-47" value="&lt;div align=&quot;left&quot;&gt;reservation_id&lt;/div&gt;" style="text;html=1;align=left;verticalAlign=middle;resizable=0;points=[];autosize=1;" vertex="1" parent="YT4_639piBS6mPweg1sy-19">
          <mxGeometry y="86" width="160" height="20" as="geometry" />
        </mxCell>
        <mxCell id="YT4_639piBS6mPweg1sy-21" value="rating" style="text;align=left;verticalAlign=top;spacingLeft=4;spacingRight=4;overflow=hidden;rotatable=0;points=[[0,0.5],[1,0.5]];portConstraint=eastwest;rounded=0;shadow=0;html=0;" vertex="1" parent="YT4_639piBS6mPweg1sy-19">
          <mxGeometry y="106" width="160" height="26" as="geometry" />
        </mxCell>
        <mxCell id="YT4_639piBS6mPweg1sy-20" value="feedback" style="text;align=left;verticalAlign=top;spacingLeft=4;spacingRight=4;overflow=hidden;rotatable=0;points=[[0,0.5],[1,0.5]];portConstraint=eastwest;" vertex="1" parent="YT4_639piBS6mPweg1sy-19">
          <mxGeometry y="132" width="160" height="26" as="geometry" />
        </mxCell>
        <mxCell id="YT4_639piBS6mPweg1sy-48" style="edgeStyle=orthogonalEdgeStyle;rounded=0;orthogonalLoop=1;jettySize=auto;html=1;entryX=1;entryY=0.2;entryDx=0;entryDy=0;entryPerimeter=0;endArrow=ERmany;endFill=0;endSize=10;strokeWidth=1;" edge="1" parent="1" source="YT4_639piBS6mPweg1sy-40" target="YT4_639piBS6mPweg1sy-47">
          <mxGeometry relative="1" as="geometry">
            <Array as="points">
              <mxPoint x="-120" y="120" />
              <mxPoint x="-120" y="400" />
            </Array>
          </mxGeometry>
        </mxCell>
        <mxCell id="YT4_639piBS6mPweg1sy-49" style="edgeStyle=orthogonalEdgeStyle;rounded=0;orthogonalLoop=1;jettySize=auto;html=1;entryX=0.007;entryY=0.493;entryDx=0;entryDy=0;entryPerimeter=0;endArrow=ERmany;endFill=0;endSize=10;strokeWidth=1;" edge="1" parent="1" source="YT4_639piBS6mPweg1sy-9" target="YT4_639piBS6mPweg1sy-46">
          <mxGeometry relative="1" as="geometry">
            <Array as="points">
              <mxPoint x="-400" y="88" />
              <mxPoint x="-400" y="358" />
            </Array>
          </mxGeometry>
        </mxCell>
        <mxCell id="YT4_639piBS6mPweg1sy-50" style="edgeStyle=orthogonalEdgeStyle;rounded=0;orthogonalLoop=1;jettySize=auto;html=1;entryX=0;entryY=0.7;entryDx=0;entryDy=0;entryPerimeter=0;endArrow=ERmany;endFill=0;endSize=10;strokeWidth=1;" edge="1" parent="1" source="YT4_639piBS6mPweg1sy-9" target="YT4_639piBS6mPweg1sy-45">
          <mxGeometry relative="1" as="geometry">
            <Array as="points">
              <mxPoint x="-390" y="88" />
              <mxPoint x="-390" y="160" />
              <mxPoint x="-320" y="160" />
              <mxPoint x="-320" y="170" />
            </Array>
          </mxGeometry>
        </mxCell>
        <mxCell id="YT4_639piBS6mPweg1sy-51" style="edgeStyle=orthogonalEdgeStyle;rounded=0;orthogonalLoop=1;jettySize=auto;html=1;entryX=1.019;entryY=0.733;entryDx=0;entryDy=0;entryPerimeter=0;endArrow=ERmany;endFill=0;endSize=10;strokeWidth=1;" edge="1" parent="1" source="YT4_639piBS6mPweg1sy-3" target="YT4_639piBS6mPweg1sy-44">
          <mxGeometry relative="1" as="geometry">
            <Array as="points">
              <mxPoint x="-50" y="68" />
              <mxPoint x="-50" y="191" />
            </Array>
          </mxGeometry>
        </mxCell>
        <mxCell id="YT4_639piBS6mPweg1sy-52" style="edgeStyle=orthogonalEdgeStyle;rounded=0;orthogonalLoop=1;jettySize=auto;html=1;entryX=1.003;entryY=0.508;entryDx=0;entryDy=0;entryPerimeter=0;endArrow=ERmany;endFill=0;endSize=10;strokeWidth=1;" edge="1" parent="1" source="YT4_639piBS6mPweg1sy-3" target="YT4_639piBS6mPweg1sy-43">
          <mxGeometry relative="1" as="geometry" />
        </mxCell>
      </root>
    </mxGraphModel>
  </diagram>
</mxfile>
